<?xml version="1.0" standalone="no"?>
<!DOCTYPE svg PUBLIC "-//W3C//DTD SVG 20010904//EN"
 "http://www.w3.org/TR/2001/REC-SVG-20010904/DTD/svg10.dtd">
<svg version="1.0" xmlns="http://www.w3.org/2000/svg"
 width="1200.000000pt" height="900.000000pt" viewBox="0 0 1200.000000 900.000000"
 preserveAspectRatio="xMidYMid meet">

<g transform="translate(0.000000,900.000000) scale(0.100000,-0.100000)"
fill="#000000" stroke="none">
<path d="M542 5667 c-46 -14 -121 -84 -143 -132 -18 -38 -19 -95 -19 -1144 0
-841 3 -1113 12 -1145 8 -25 31 -59 59 -88 83 -83 5 -78 1254 -78 1212 0 1161
-3 1239 62 21 17 49 54 62 82 l24 51 0 1099 c0 805 -3 1109 -12 1137 -16 55
-73 118 -132 145 l-51 24 -1130 -1 c-761 -1 -1141 -4 -1163 -12z m1024 -532
c68 -84 30 -187 -72 -200 -47 -6 -55 -4 -84 22 -41 37 -51 96 -24 156 10 23
22 44 26 47 4 3 35 6 69 5 55 0 63 -3 85 -30z m926 6 c26 -23 32 -37 36 -83 4
-50 2 -58 -24 -86 -40 -43 -116 -54 -156 -22 -41 32 -54 91 -32 149 24 65 26
67 89 68 48 1 61 -2 87 -26z m-1422 -20 c42 -34 50 -78 24 -127 -44 -81 -166
-81 -219 0 -13 20 -14 27 -1 57 45 108 117 134 196 70z m957 3 c51 -38 58 -67
32 -121 -35 -73 -123 -94 -189 -45 -55 41 -56 77 -2 150 43 59 96 64 159 16z
m-503 -398 c18 -7 42 -26 54 -41 22 -28 22 -30 22 -532 0 -543 0 -541 -52
-577 -29 -21 -102 -20 -134 0 -54 36 -54 32 -54 571 0 482 1 499 20 531 19 30
67 61 98 62 7 0 27 -6 46 -14z m942 -2 c65 -31 64 -19 64 -585 l0 -511 -34
-34 c-29 -29 -41 -34 -81 -34 -40 0 -52 5 -81 34 l-34 34 0 519 c0 573 -3 542
65 577 38 20 59 20 101 0z m-1403 -31 c50 -39 60 -70 37 -121 -30 -67 -103
-90 -176 -56 -19 9 -41 29 -49 45 -13 24 -13 32 0 62 7 18 27 48 43 65 40 43
93 44 145 5z m963 -4 c54 -43 59 -63 32 -118 -28 -56 -58 -73 -119 -68 -87 7
-131 64 -99 127 49 96 113 117 186 59z m-960 -435 c62 -29 64 -42 64 -350 l0
-276 -34 -34 c-45 -45 -108 -48 -155 -8 -48 40 -53 73 -49 349 3 278 6 292 71
320 42 19 62 18 103 -1z m951 -9 c48 -32 53 -64 53 -336 0 -212 -3 -256 -16
-285 -20 -42 -59 -64 -115 -64 -33 0 -47 6 -75 34 l-34 34 0 280 0 280 27 32
c14 18 36 36 47 41 28 12 82 4 113 -16z"/>
<path d="M1555 5019 c-4 -6 -5 -12 -2 -15 2 -3 7 2 10 11 7 17 1 20 -8 4z"/>
<path d="M2486 5015 c-9 -26 -7 -32 5 -12 6 10 9 21 6 23 -2 3 -7 -2 -11 -11z"/>
<path d="M8440 5281 c-7 -13 -10 -283 -10 -806 0 -523 3 -793 10 -806 12 -21
50 -25 68 -7 17 17 17 1609 0 1626 -18 18 -56 14 -68 -7z"/>
<path d="M4690 5078 c-50 -27 -50 -24 -47 -601 l2 -539 28 -24 c41 -35 99 -33
138 5 l29 29 0 541 0 540 -23 26 c-26 31 -89 42 -127 23z"/>
<path d="M6091 5077 c-50 -29 -50 -35 -51 -453 0 -429 3 -453 62 -546 64 -101
181 -173 300 -185 62 -5 66 -4 99 25 28 25 34 37 34 71 0 59 -36 92 -111 102
-72 10 -129 48 -161 108 -22 42 -23 53 -23 268 l0 223 110 0 c125 0 153 9 175
57 20 42 13 82 -21 114 -23 22 -35 24 -144 27 l-118 4 -4 69 c-3 58 -8 73 -29
94 -30 31 -85 41 -118 22z"/>
<path d="M6770 5062 l-30 -30 0 -542 0 -542 30 -30 c28 -27 36 -30 77 -25 28
3 54 13 67 26 21 21 21 23 21 571 0 548 0 550 -21 571 -13 13 -39 23 -67 26
-41 5 -49 2 -77 -25z"/>
<path d="M11178 5049 c-17 -9 -18 -43 -18 -488 0 -531 -3 -505 67 -499 l38 3
5 260 5 259 43 33 c70 53 150 64 209 27 45 -28 48 -46 53 -319 l5 -260 50 0
50 0 0 280 c0 263 -1 282 -21 320 -54 106 -237 126 -350 40 -18 -14 -35 -25
-38 -25 -3 0 -6 83 -6 184 0 158 -2 185 -16 190 -23 9 -57 7 -76 -5z"/>
<path d="M8975 4978 c-3 -7 -4 -215 -3 -463 l3 -450 170 -3 c99 -2 195 2 230
8 79 15 167 63 215 117 112 128 132 432 39 618 -42 83 -137 151 -247 174 -76
16 -401 15 -407 -1z m431 -120 c28 -15 65 -42 81 -62 64 -72 94 -217 74 -359
-17 -125 -63 -196 -156 -245 -45 -24 -63 -27 -182 -30 l-133 -4 0 367 0 367
133 -4 c119 -3 137 -6 183 -30z"/>
<path d="M3705 4881 c-11 -5 -29 -19 -40 -31 -19 -22 -20 -36 -20 -560 l0
-538 24 -26 c30 -31 73 -42 112 -26 45 19 59 56 59 155 0 47 1 85 3 85 1 0 27
-10 57 -22 41 -16 77 -22 140 -22 111 0 179 26 258 99 107 99 142 196 142 395
0 199 -35 296 -142 395 -117 108 -279 133 -421 65 -41 -20 -42 -20 -57 -1 -30
37 -73 49 -115 32z m403 -207 c49 -20 90 -60 113 -109 15 -32 19 -65 19 -173
0 -145 -10 -184 -58 -235 -99 -104 -246 -82 -315 48 -20 36 -22 56 -22 185 0
129 2 149 22 185 52 98 149 138 241 99z"/>
<path d="M5342 4874 c-145 -38 -258 -164 -291 -322 -6 -29 -11 -106 -11 -170
0 -190 38 -293 145 -390 76 -70 146 -96 255 -96 118 0 185 27 266 108 101 101
134 197 134 386 0 60 -5 133 -11 162 -34 159 -148 285 -294 323 -72 18 -123
18 -193 -1z m174 -203 c49 -22 97 -78 113 -130 14 -47 15 -253 1 -301 -22 -78
-112 -150 -190 -150 -78 0 -168 70 -189 147 -14 48 -14 256 -1 303 22 78 112
150 190 150 19 0 53 -9 76 -19z"/>
<path d="M7163 4880 c-31 -13 -57 -57 -56 -94 1 -17 65 -177 142 -355 78 -178
141 -330 141 -337 0 -27 -48 -120 -76 -146 -35 -33 -93 -58 -134 -58 -19 0
-42 -11 -62 -29 -28 -25 -33 -36 -32 -71 1 -31 8 -49 28 -69 23 -23 34 -26 89
-25 110 3 226 64 291 153 37 51 406 903 406 938 0 90 -108 135 -167 70 -12
-12 -67 -131 -124 -264 -57 -134 -106 -239 -110 -235 -3 4 -52 116 -109 249
-57 134 -111 250 -120 258 -22 20 -78 28 -107 15z"/>
<path d="M9991 4745 c-105 -30 -134 -65 -93 -114 l17 -22 62 25 c116 48 223
44 273 -9 19 -20 24 -37 25 -78 l0 -52 -103 -7 c-238 -16 -332 -83 -332 -239
0 -126 74 -193 214 -193 84 -1 132 14 190 59 l43 32 11 -43 c12 -46 26 -52 77
-38 19 5 20 12 17 257 -2 139 -8 269 -13 289 -12 48 -51 93 -103 120 -54 28
-205 35 -285 13z m287 -427 c3 -76 3 -76 -30 -102 -55 -41 -119 -66 -175 -66
-44 0 -58 5 -85 28 -26 25 -31 36 -31 75 0 56 20 88 70 112 39 19 137 34 208
31 l40 -1 3 -77z"/>
<path d="M10665 4741 c-85 -38 -126 -124 -105 -218 16 -72 62 -112 171 -148
105 -35 139 -66 139 -125 0 -33 -6 -48 -29 -71 -27 -26 -36 -29 -99 -29 -55 0
-79 5 -117 26 l-49 25 -18 -23 c-10 -13 -17 -34 -16 -47 6 -57 179 -100 282
-71 55 15 124 72 142 117 18 42 18 124 0 166 -20 49 -64 80 -165 117 -104 37
-131 62 -131 120 0 53 34 82 103 88 35 3 66 -1 91 -12 52 -22 54 -21 73 20 17
35 17 36 -2 50 -52 38 -202 46 -270 15z"/>
</g>
</svg>
